<svg id="Group_952" data-name="Group 952" xmlns="http://www.w3.org/2000/svg" width="20.452" height="20.452" viewBox="0 0 20.452 20.452">
  <g id="_32484b1c071b931a52d1cb3c3784e49a" data-name="32484b1c071b931a52d1cb3c3784e49a">
    <path id="Path_548" data-name="Path 548" d="M21.478,3.948V9.791a1.948,1.948,0,0,1-1.948,1.948H3.948A1.948,1.948,0,0,1,2,9.791V3.948A1.948,1.948,0,0,1,3.948,2H19.53A1.948,1.948,0,0,1,21.478,3.948Z" transform="translate(-1.513 -1.513)" fill="#93c5fd"/>
    <path id="Path_549" data-name="Path 549" d="M19.108,8.987a.487.487,0,0,1-.487.487H4.987a.487.487,0,0,1,0-.974H18.621A.487.487,0,0,1,19.108,8.987Z" transform="translate(-1.578 -1.683)" fill="#fff"/>
    <path id="Path_550" data-name="Path 550" d="M21.952,18.543a3.409,3.409,0,1,1-6.817,0V13.674h.974v4.869a2.435,2.435,0,1,0,4.869,0,.487.487,0,0,1,.974,0ZM11.239,13.674v3.9a.487.487,0,1,0,.974,0v-3.9Zm-3.9,0v4.869a2.435,2.435,0,1,1-4.869,0,.487.487,0,0,0-.974,0,3.409,3.409,0,1,0,6.817,0V13.674ZM21.952,3.935V9.778a2.437,2.437,0,0,1-2.435,2.435H3.935A2.437,2.437,0,0,1,1.5,9.778V3.935A2.437,2.437,0,0,1,3.935,1.5H19.517A2.437,2.437,0,0,1,21.952,3.935Zm-.974,0a1.462,1.462,0,0,0-1.461-1.461H3.935A1.462,1.462,0,0,0,2.474,3.935V9.778a1.462,1.462,0,0,0,1.461,1.461H19.517a1.462,1.462,0,0,0,1.461-1.461Z" transform="translate(-1.5 -1.5)" fill="#0f172a"/>
  </g>
</svg>
